<?xml version="1.0" encoding="utf-8"?>
<!-- Generator: Adobe Illustrator 17.0.0, SVG Export Plug-In . SVG Version: 6.00 Build 0)  -->
<!DOCTYPE svg PUBLIC "-//W3C//DTD SVG 1.1//EN" "http://www.w3.org/Graphics/SVG/1.1/DTD/svg11.dtd">
<svg version="1.1" id="图层_1" xmlns="http://www.w3.org/2000/svg" xmlns:xlink="http://www.w3.org/1999/xlink" x="0px" y="0px"
	 width="160px" height="70px" viewBox="0 0 160 70" enable-background="new 0 0 160 70" xml:space="preserve">
<g>
	<path fill="#FFFFFF" d="M139.765,41.852c-0.004,0-0.007,0.002-0.009,0.007c-0.005,0.013-0.012,0.023-0.032,0.023
		c-0.026,0-0.04-0.021-0.04-0.053c0-0.032,0.014-0.053,0.04-0.053c0.019,0,0.026,0.01,0.031,0.022
		c0.002,0.004,0.005,0.006,0.009,0.006c0.002,0,0.004,0,0.005-0.001c0.004-0.001,0.008-0.004,0.008-0.009
		c0-0.001,0-0.003-0.001-0.004c-0.006-0.016-0.02-0.034-0.052-0.034c-0.041,0-0.063,0.031-0.063,0.073
		c0,0.043,0.023,0.072,0.063,0.072c0.034,0,0.047-0.018,0.054-0.035c0.001-0.002,0.001-0.003,0.001-0.004
		c0-0.004-0.003-0.007-0.008-0.008C139.768,41.853,139.767,41.852,139.765,41.852z"/>
	<path fill="#FFFFFF" d="M139.88,41.877c-0.008,0-0.016,0.001-0.025,0.003c0.008-0.007,0.015-0.013,0.021-0.021l0.059-0.073
		c0.004-0.005,0.007-0.009,0.007-0.015c0-0.006-0.003-0.011-0.009-0.011h-0.084c-0.006,0-0.009,0.005-0.009,0.01
		c0,0.006,0.003,0.01,0.009,0.01h0.044c0.01,0,0.018-0.001,0.027-0.002c-0.007,0.006-0.014,0.013-0.021,0.022l-0.058,0.072
		c-0.004,0.005-0.006,0.009-0.006,0.016c0,0.006,0.003,0.011,0.01,0.011h0.093c0.006,0,0.009-0.005,0.009-0.01
		s-0.003-0.01-0.009-0.01H139.88z"/>
	<path fill="#FFFFFF" d="M73.345,30.88c1.366-1.04,2.059-2.533,2.059-4.439c0-3.45-3.057-6.053-7.111-6.053
		c-4.02,0-7.168,2.659-7.168,6.053l0.017,0.321h1.781c0.941,0,1.278-0.249,2.595-1.537c0.643-0.647,1.674-1.02,2.86-1.02h0
		c1.055,0.005,1.836,0.3,2.32,0.877c0.523,0.624,0.556,1.404,0.501,1.729c-0.313,1.843-2.396,2.791-6.19,2.817l-0.29,0.002v2.311
		l0.006,0.293l0.809-0.002c2.506,0,5.421,0.341,5.727,2.997c0.086,0.74-0.088,1.358-0.515,1.837
		c-0.612,0.688-1.607,0.931-2.271,0.931c-0.058,0-0.115-0.001-0.17-0.006c-1.31-0.081-2.393-0.599-3.052-1.458l-0.022-0.026
		c-0.681-0.844-1.542-1.291-2.49-1.291h-1.672l-0.004,0.331c0,3.566,3.174,6.359,7.227,6.359c4.129,0,7.242-2.647,7.242-6.159
		C75.535,33.792,74.72,31.986,73.345,30.88z"/>
	<path fill="#FFFFFF" d="M101.946,36.108l0.071-0.224l-0.202-0.118c-0.912-0.533-2.06-0.33-3.408,0.643
		c-0.099,0.082-0.198,0.167-0.297,0.25c-0.868,0.74-1.773,1.505-3.799,1.436c-2.631-0.1-4.2-3.026-4.404-5.839h10.481
		c0.455,0,1.574-0.067,2.142-0.69c0.262-0.287,0.375-0.648,0.336-1.062c-0.203-3.04-1.448-10.11-8.597-10.11
		c-4.933,0-8.652,4.624-8.652,10.757c0,6.435,3.477,10.757,8.652,10.757C97.753,41.907,100.839,39.577,101.946,36.108z M94.3,24.004
		c2.172,0,3.816,1.831,4.249,4.698h-8.504C90.411,25.919,92.128,24.004,94.3,24.004z"/>
	<path fill="#FFFFFF" d="M58.407,41.901v-21.17l-0.294,0.003c-2.728,0.023-4.111,0.888-4.112,2.592v11.123
		c0,2.357-2.33,3.659-3.94,3.659c-1.426,0-2.87-1.266-2.87-3.682V23.306c0-1.174-0.752-2.572-4.336-2.572h-0.293v11.954
		c0,6.373,2.094,9.214,6.788,9.214c2.401,0,3.977-1.306,4.711-2.096c0.304,1.745,1.687,2.069,2.557,2.096H58.407z"/>
	<path fill="#FFFFFF" d="M156.365,41.514c-6.231-22.827-37.017-39.477-73.205-39.589c-0.599,0.006-1.222,0.01-1.875,0.01
		c-9.162,0.116-18.084,1.287-26.524,3.479c-7.732,2.156-14.946,5.301-21.451,9.345l-4.01-12.836h-0.215
		c-4.811,0-6.365,2.46-8.545,7.679l-5.752,13.812c-2.22,5.332-5.574,13.387-10.685,17.958l-0.57,0.51l7.472,0.012
		c0.033,0,0.064-0.004,0.103-0.01l0.106-0.003c0.026-0.003,0.052-0.008,0.11-0.018l0.025-0.004c0.083-0.014,0.163-0.029,0.24-0.05
		l0.042-0.001l0.036-0.021c0.077-0.021,0.153-0.049,0.226-0.077l0.019-0.008c0.081-0.033,0.161-0.072,0.238-0.114l0.028-0.015
		c0.083-0.047,0.163-0.099,0.247-0.16c0.076-0.054,0.152-0.115,0.231-0.186c0.072-0.063,0.142-0.133,0.22-0.216
		c0.067-0.07,0.133-0.147,0.18-0.205l0.031-0.034c0.062-0.077,0.125-0.159,0.206-0.267c0.06-0.081,0.12-0.168,0.18-0.256
		l0.025-0.038c0.056-0.085,0.113-0.171,0.167-0.258l0.039-0.061c0.052-0.082,0.105-0.168,0.159-0.257l0.061-0.099
		c0.042-0.068,0.085-0.141,0.128-0.215l0.306-0.518c0.149-0.255,0.308-0.525,0.48-0.812l0.059-0.1
		c0.016-0.026,0.032-0.05,0.048-0.074l0.043-0.067c3.227-5.887,8.283-11.222,15.034-15.86l5.88,16.309
		c1.172,3.129,2.522,3.701,4.761,3.701h1.125l-7.156-22.907C45.905,12.49,57.703,7.969,78.327,7.039v26.529
		c0,5.224-1.156,7.877-1.167,7.903l-0.184,0.412l6.11,0.018V9.894c0-3.012,1.269-3.021,1.686-3.023
		c0.538-0.006,1.079-0.009,1.628-0.009c12.253,0,24.348,2.026,34.969,5.857c1.451,0.572,2.418,1.381,2.418,3.472v25.71l1.655-0.001
		c1.721-0.074,2.97-1.087,2.97-2.408V27.049c0.591-0.803,1.884-1.377,3.118-1.377c0.982,0,3.265,0.397,3.265,4.082l0,9.915
		c0.111,1.31,1.138,2.166,2.691,2.232h1.827V29.011c0-4.877-3.575-7.059-7.118-7.059c-1.378,0-2.7,0.336-3.783,0.953v-7.293
		c11.61,5.42,20.293,12.826,25.131,21.442c0.879,1.521,1.632,3.085,2.237,4.642l0.102,0.188h0.583L156.365,41.514z M21.132,24.302
		c-0.574,0.653-1.16,1.322-1.71,1.928l3.488-8.505l1.691-4.248c0.53-1.279,0.956-2.171,1.364-2.847l2.636,7.312
		C25.164,20.464,22.654,22.778,21.132,24.302z"/>
	<path fill="#FFFFFF" d="M120.528,34.715c-0.794,0-1.913,0.271-2.794,1.545l-0.069,0.095c-0.906,1.239-2.079,1.923-3.301,1.923
		c-2.681,0-4.862-3.218-4.862-7.173c0-3.953,2.182-7.172,4.862-7.172c0.971,0,1.911,0.427,2.719,1.235l0.009,0.009
		c0.004,0.006,0.009,0.01,0.014,0.015l0.027,0.032c0.061,0.062,0.119,0.127,0.191,0.206c0.7,0.684,1.81,1.126,2.828,1.126
		c0.568,0,1.073-0.138,1.459-0.4l0.208-0.141l-0.109-0.229c-1.598-3.326-4.579-5.393-7.779-5.393c-4.947,0-8.971,4.82-8.971,10.745
		c0,5.924,4.024,10.745,8.971,10.745c3.587,0,6.822-2.55,8.242-6.497l0.088-0.246l-0.235-0.115
		C122.019,35.023,121.38,34.715,120.528,34.715z"/>
	<path fill="#FFFFFF" d="M27.991,53.494L27.54,54.72h-3.596c-0.919,0-0.999,0.798-0.999,1.19v6.961h1.751v-1.253v-5.331h8.401v5.366
		c0,0.583,0.117,1.218,0.861,1.218h0.869V54.72h-5.185c0.001-0.002,0.001-0.003,0.002-0.004c-0.006,0.002-0.009,0.004-0.009,0.004
		l0.31-1.004L27.991,53.494z"/>
	<path fill="#FFFFFF" d="M29.701,62.263v-0.828l2.223,1.476l0.865-1.148l-2.401-1.567c-0.003-0.001-0.005-0.004-0.008-0.005
		l-0.679,0.863v-0.878h3.038v-1.442h-1.371l1.173-1.445l-1.076-0.906l-1.442,1.746l0.69,0.605h-1.013v-2.194h-1.608v2.194h-1.251
		l0.953-0.752c-0.199-0.208-0.497-0.522-0.894-0.941c-0.278-0.333-0.476-0.565-0.595-0.69l-1.131,0.878
		c0.038,0.043,0.097,0.104,0.178,0.188c0.437,0.543,0.774,0.982,1.013,1.316h-1.31v1.442h2.204c0,0-1.219,0.986-2.176,1.36
		l0.67,1.249c0.738-0.378,1.562-0.83,2.339-1.605v1.084H29.701z"/>
	<path fill="#FFFFFF" d="M29.76,63.311h-0.059l0.088-0.626h-1.766l-0.11,0.626h-4.819c-0.771,0-1.019,0.417-1.019,0.726v0.904h5.103
		c-0.742,0.783-2.553,1.387-4.785,1.549l0.186,1.584c3.205-0.228,5.238-1.252,6.287-2.757c1.226,1.799,3.302,2.489,6.039,2.712
		l0.426-1.604c-2.207-0.104-3.831-0.596-4.855-1.483h4.164c0.735,0,0.831-0.401,0.831-0.604v-1.025h-5.649H29.76z"/>
	<path fill="#FFFFFF" d="M61.411,62.887l-0.8,0.674v-0.876h2.323v-1.569h-2.323V59.61h-1.668v1.505h-2.442v1.569h2.144
		c-0.816,1.267-1.688,2.312-2.618,3.139l0.868,1.3c1.178-1.101,2.047-2.308,2.047-2.308v3.262h1.668v-3.825
		c0.317,0.377,0.675,0.795,1.072,1.254l1.129-1.075L61.411,62.887z"/>
	<path fill="#FFFFFF" d="M67.755,62.685h1.83v-1.569h-2.306V59.61H65.61v1.505h-2.146v1.569h1.668
		c-0.808,1.214-1.922,2.353-3.066,3.217l0.988,1.207c1.637-1.444,2.409-2.497,2.531-2.69c0.008-0.014,0.017-0.027,0.025-0.042v3.701
		h1.668v-3.638c0.084,0.129,0.173,0.248,0.26,0.373c0.235,0.299,0.638,0.778,1.106,1.261c0.672,0.64,1.193,0.955,1.671,0.329h0
		l0.485-0.636C69.719,65.023,68.394,63.73,67.755,62.685z"/>
	<path fill="#FFFFFF" d="M62.338,53.48v1.511h-5.182v1.609h3.932c0,0-0.011,0.007-0.028,0.016c-0.407,0.252-3.011,1.637-4.47,2.097
		l0.533,1.513c2.864-1.041,4.408-2.112,5.215-2.746v3.019h1.728v-2.894c1.418,1.062,3.165,1.712,5.194,2.438l0.599-1.487
		c-1.243-0.465-2.782-0.845-4.451-1.954h3.92v-1.609h-5.262V53.48H62.338z"/>
	<polygon fill="#FFFFFF" points="134.592,61.619 135.859,60.344 133.467,58.161 132.365,59.38 	"/>
	<polygon fill="#FFFFFF" points="135.933,56.839 133.549,54.772 132.442,55.937 134.71,58.128 	"/>
	<path fill="#FFFFFF" d="M130.716,60.364l-0.655,0.625v-1.253h1.847v-0.062v-1.695h-1.847V55.51l1.919-0.214l-0.315-1.661
		l-5.297,0.607l0.101,1.666l1.83-0.203v2.273h-2.109v1.758h2.099c-0.007,0.021-1.43,2.462-2.587,3.996l0.867,1.553l1.706-2.632
		v5.424h1.789v-6.271c0.079,0.086,0.217,0.251,0.417,0.502c0.318,0.377,0.575,0.69,0.774,0.94l1.114-1.113L130.716,60.364z"/>
	<polygon fill="#FFFFFF" points="138.012,53.527 136.078,53.527 136.078,62.2 132.191,62.6 132.191,64.292 136.078,63.89 
		136.078,68.077 138.012,68.077 138.012,63.69 139.694,63.526 139.694,61.841 138.012,61.994 	"/>
	<polygon fill="#FFFFFF" points="91.594,55.976 93.043,58.136 94.574,57.121 93.126,54.96 	"/>
	<path fill="#FFFFFF" d="M98.99,53.487v2.518h-1.826c-1.533,0-1.665,0.768-1.674,1.374v7.906h7.118c0.688,0,1.699-0.229,1.699-1.028
		v-8.252h-3.565v-2.518H98.99z M98.99,63.579h-1.834V61.46h1.834V63.579z M98.99,59.89h-1.834v-2.246h1.834V59.89z M102.688,63.579
		h-1.946V61.46h1.946V63.579z M102.688,57.644v2.246h-1.946v-2.246H102.688z"/>
	<path fill="#FFFFFF" d="M94.474,65.13v-6.05h-2.968v1.587h1.236v4.337l-1.666,1.566l1.234,1.421c0,0,1.088-1.008,1.33-1.231
		c0.912,0.878,2.383,1.317,4.409,1.317c0.476,0,6.985,0,6.985,0v-1.683c0,0-6.941,0-6.968,0
		C95.931,66.391,95.269,65.966,94.474,65.13z"/>
</g>
</svg>
