<?xml version="1.0" encoding="utf-8"?>
<!-- Generator: Adobe Illustrator 17.0.0, SVG Export Plug-In . SVG Version: 6.00 Build 0)  -->
<!DOCTYPE svg PUBLIC "-//W3C//DTD SVG 1.1//EN" "http://www.w3.org/Graphics/SVG/1.1/DTD/svg11.dtd">
<svg version="1.1" id="图层_1" xmlns="http://www.w3.org/2000/svg" xmlns:xlink="http://www.w3.org/1999/xlink" x="0px" y="0px"
	 width="117.905px" height="12.819px" viewBox="0 0 117.905 12.819" enable-background="new 0 0 117.905 12.819"
	 xml:space="preserve">
<g>
	<path fill="#FFFFFF" d="M8.069,7.933l0.797,0.234c-0.5,2-1.859,3.016-4.078,3.047c-2.688-0.188-4.094-1.75-4.219-4.688
		c0.156-3.125,1.609-4.766,4.359-4.922C6.74,1.667,7.99,2.573,8.678,4.323L7.881,4.511c-0.532-1.438-1.547-2.188-3.047-2.25
		C2.647,2.448,1.475,3.839,1.319,6.433c0.125,2.625,1.266,4.031,3.422,4.219C6.552,10.651,7.662,9.745,8.069,7.933z"/>
	<path fill="#FFFFFF" d="M18.709,11.073h-0.984l-3.469-4.219h-3.047v4.219h-0.703V1.745h4.312c2,0.062,3.047,0.922,3.141,2.578
		c0,1.594-0.954,2.438-2.859,2.531L18.709,11.073z M11.209,2.354v3.891h3.375c1.781,0.031,2.656-0.625,2.625-1.969
		c0-1.281-0.875-1.922-2.625-1.922H11.209z"/>
	<path fill="#FFFFFF" d="M20.678,10.558h6.234v0.516h-6.938V1.745h6.703v0.609h-6v3.609h5.672v0.609h-5.672V10.558z"/>
	<path fill="#FFFFFF" d="M35.678,11.073l-1.266-3h-4.688l-1.312,3h-0.75l3.984-9.375h0.75l4.078,9.375H35.678z M29.959,7.464h4.172
		l-2.062-4.969h-0.047L29.959,7.464z"/>
	<path fill="#FFFFFF" d="M44.256,2.354h-3.375v8.719h-0.703V2.354h-3.375V1.745h7.453V2.354z"/>
	<path fill="#FFFFFF" d="M45.709,1.745h0.703v9.328h-0.703V1.745z"/>
	<path fill="#FFFFFF" d="M52.365,11.073h-0.703l-3.938-9.328h0.75l3.562,8.812l3.516-8.812h0.797L52.365,11.073z"/>
	<path fill="#FFFFFF" d="M58.272,10.558h6.234v0.516h-6.938V1.745h6.703v0.609h-6v3.609h5.672v0.609h-5.672V10.558z"/>
	<path fill="#FFFFFF" d="M80.069,7.933l0.797,0.234c-0.5,2-1.859,3.016-4.078,3.047c-2.688-0.188-4.094-1.75-4.219-4.688
		c0.156-3.125,1.609-4.766,4.359-4.922c1.812,0.062,3.062,0.969,3.75,2.719l-0.797,0.188c-0.532-1.438-1.547-2.188-3.047-2.25
		c-2.188,0.188-3.359,1.578-3.516,4.172c0.125,2.625,1.266,4.031,3.422,4.219C78.552,10.651,79.662,9.745,80.069,7.933z"/>
	<path fill="#FFFFFF" d="M82.365,11.12V1.745h0.703v8.812h5.203v0.562H82.365z"/>
	<path fill="#FFFFFF" d="M93.85,11.214c-2.875-0.156-4.375-1.719-4.5-4.688c0.156-3.125,1.688-4.766,4.594-4.922
		c2.75,0.188,4.234,1.812,4.453,4.875C98.272,9.511,96.756,11.089,93.85,11.214z M93.85,2.261c-2.344,0.219-3.594,1.625-3.75,4.219
		c0.125,2.625,1.359,4.016,3.703,4.172c2.406-0.125,3.672-1.516,3.797-4.172C97.475,3.854,96.225,2.448,93.85,2.261z"/>
	<path fill="#FFFFFF" d="M107.49,1.745v5.438c0.031,2.719-1.219,4.062-3.75,4.031c-2.469,0.031-3.688-1.312-3.656-4.031V1.745h0.703
		v5.438c-0.031,2.312,0.953,3.469,2.953,3.469c2.062,0,3.078-1.156,3.047-3.469V1.745H107.49z"/>
	<path fill="#FFFFFF" d="M112.881,11.073h-3.328V1.745h3.422c2.812,0.094,4.266,1.656,4.359,4.688
		C117.397,9.589,115.912,11.136,112.881,11.073z M112.928,2.354h-2.625v8.203h2.578c2.5,0,3.75-1.375,3.75-4.125
		C116.569,3.808,115.334,2.448,112.928,2.354z"/>
</g>
</svg>
